<svg width="64" height="64" viewBox="0 0 64 64" fill="none" xmlns="http://www.w3.org/2000/svg">
<path d="M45.13 47.7853C42.1833 47.7853 39.8206 50.148 39.8206 53.0948C39.8206 54.5029 40.38 55.8534 41.3757 56.8491C42.3714 57.8448 43.7219 58.4042 45.13 58.4042C46.5382 58.4042 47.8887 57.8448 48.8844 56.8491C49.8801 55.8534 50.4395 54.5029 50.4395 53.0948C50.4395 51.6866 49.8801 50.3361 48.8844 49.3404C47.8887 48.3447 46.5382 47.7853 45.13 47.7853ZM2.6543 5.30957V10.619H7.96376L17.5208 30.7685L13.9104 37.2726C13.5122 38.0159 13.2732 38.8919 13.2732 39.8211C13.2732 41.2293 13.8326 42.5797 14.8283 43.5755C15.8241 44.5712 17.1745 45.1306 18.5827 45.1306H50.4395V39.8211H19.6977C19.5217 39.8211 19.3529 39.7512 19.2284 39.6267C19.1039 39.5022 19.034 39.3334 19.034 39.1574C19.034 39.0247 19.0605 38.9185 19.1136 38.8389L21.5029 34.5116H41.2807C43.2717 34.5116 45.0238 33.3966 45.9264 31.7773L55.4304 14.6011C55.6162 14.1764 55.749 13.7251 55.749 13.2738C55.749 12.5697 55.4693 11.8944 54.9714 11.3966C54.4736 10.8987 53.7983 10.619 53.0942 10.619H13.8307L11.3353 5.30957M18.5827 47.7853C15.6359 47.7853 13.2732 50.148 13.2732 53.0948C13.2732 54.5029 13.8326 55.8534 14.8283 56.8491C15.8241 57.8448 17.1745 58.4042 18.5827 58.4042C19.9909 58.4042 21.3413 57.8448 22.3371 56.8491C23.3328 55.8534 23.8922 54.5029 23.8922 53.0948C23.8922 51.6866 23.3328 50.3361 22.3371 49.3404C21.3413 48.3447 19.9909 47.7853 18.5827 47.7853Z" fill="white"/>
</svg>
